<?xml version="1.0" encoding="utf-8"?>
<!-- Generator: Adobe Illustrator 24.0.0, SVG Export Plug-In . SVG Version: 6.00 Build 0)  -->
<svg version="1.1" id="Layer_1" xmlns="http://www.w3.org/2000/svg" xmlns:xlink="http://www.w3.org/1999/xlink" x="0px" y="0px"
	 viewBox="0 0 850.39 850.39" style="enable-background:new 0 0 850.39 850.39;" xml:space="preserve">
<style type="text/css">
	.st0{fill:#010101;}
	.st1{fill:#328ECD;}
	.st2{fill:#F6D71A;}
	.st3{fill:#ED1E24;}
	.st4{fill:#5AAD46;}
</style>
<path class="st1" d="M423.16,718.29c0-7.63,0.14-15.05-0.08-22.47c-0.05-2.09-1.63-3.3-3.96-3.54c-0.88-0.11-1.61-1.31-2.43-2.01
	c0.84-0.46,1.63-1.11,2.53-1.32c3.69-0.86,7.38-1.54,11.05-2.39c3.53-0.81,4.24-0.31,4.24,3.35c-0.02,18.48-0.03,36.97-0.03,55.45
	c0,1.63,0.02,3.25,0.07,4.87c0.19,5.77,1.06,6.47,6.56,5.26c1.68,1.6,1.47,2.89-0.61,3.94c-3.27,1.65-6.47,3.45-9.83,4.93
	c-3.53,1.57-4.76,0.93-6.03-2.76c-0.48-1.41-0.75-2.88-1.27-4.9c-1.11,0.82-2.12,1.36-2.86,2.13c-11.49,12.19-26.38,5.77-30.68-9.08
	c-3.06-10.7,0.58-22.95,9.08-29.16c7.04-5.14,14.59-6.81,22.76-2.69C422.02,718.09,422.46,718.12,423.16,718.29 M423.29,739.38
	c0-3.02,0.03-6.05-0.04-9.08c-0.03-1.04-0.14-2.25-0.69-3.06c-2.58-3.89-6.3-5.8-10.96-5.61c-4.42,0.19-7.63,2.46-9.3,6.46
	c-1.01,2.44-1.65,5.12-1.98,7.75c-0.7,5.63,0.36,10.97,3.63,15.7c2.88,4.18,7.32,5.63,11.9,4.13c5.22-1.72,7.45-4.73,7.45-10.13
	C423.29,743.49,423.29,741.43,423.29,739.38"/>
<path class="st1" d="M294.22,723.09c4.18-2.24,7.71-4.59,11.56-6.1c8.82-3.42,16.57,0.5,19.75,9.53c5.5,15.63-1.8,28.23-14.24,35.77
	c-5.89,3.57-11.94,3.43-18.27,1.1c-10.12-3.71-10.14-3.6-10.14-14.29c0-14.7,0.01-29.38-0.03-44.08c0-2.68-0.23-5.38-0.37-8.07
	c-0.13-2.29-1.45-3.39-3.58-3.96c-0.87-0.23-1.54-1.14-2.3-1.74c0.81-0.69,1.54-1.72,2.46-1.98c3.82-1.07,7.72-1.89,11.57-2.83
	c2.87-0.71,3.33,0.96,3.33,3.23c-0.04,9.72-0.05,19.44-0.04,29.17C293.91,720.19,294.11,721.55,294.22,723.09 M293.74,741.37h0.02
	c0,3.13-0.14,6.27,0.08,9.4c0.08,1.1,0.74,2.67,1.61,3.12c2.57,1.31,5.29,2.54,8.09,3.13c5.99,1.28,10.65-1.29,12.33-7.15
	c2.05-7.15,1.63-14.35-1.94-21.05c-2.15-4.06-6.93-6.25-10.64-4.82c-6.62,2.56-10.36,4.56-9.6,10.25
	C294,736.58,293.74,738.99,293.74,741.37"/>
<path class="st1" d="M210.94,700.69c8.98,0,16.85-0.02,24.72,0.06c0.5,0.01,1.51,0.96,1.42,1.21c-0.25,0.78-0.76,1.82-1.44,2.07
	c-5.44,2.1-5.5,2.04-5.44,7.81c0.13,10.27,0.24,20.53,0.53,30.79c0.21,7.88,3.86,13.27,9.89,15.17c10.07,3.17,18.41-2.42,19-13.58
	c0.62-11.75,0.36-23.56,0.5-35.33c0.05-3.26-2.18-4.27-4.73-4.72c-2.08-0.35-2.52-1.31-1.77-3.51c6.47,0,13.04-0.03,19.6,0.07
	c0.56,0.01,1.56,0.9,1.58,1.41c0.04,0.61-0.67,1.65-1.24,1.83c-6.41,1.88-5.22,2.25-5.26,7.76c-0.08,8.76,0.08,17.52-0.05,26.27
	c-0.08,5.55-1.17,10.94-4.05,15.79c-4.29,7.25-10.77,11.21-19.15,11.21c-4.34,0-8.89-0.61-12.96-2.02
	c-8.13-2.79-12.73-9.11-13.15-17.55c-0.56-11.23-0.26-22.48-0.31-33.72c-0.03-5.64-0.04-5.56-5.48-7.75
	C212.35,703.66,211.98,702.29,210.94,700.69"/>
<path class="st1" d="M385.28,755.36c1.51,1.87,1.25,3.15-0.84,4.17c-3.1,1.52-6.06,3.3-9.2,4.76c-3.85,1.79-5.7,0.86-7.05-3.26
	c-0.36-1.12-0.69-2.25-1.19-3.89c-1.19,0.86-2.18,1.55-3.17,2.26c-4.23,3.02-8.45,5.92-14.07,5.77
	c-7.33-0.21-11.98-4.41-12.16-11.84c-0.21-8.32-0.2-16.64-0.11-24.98c0.04-3.68-0.68-6.42-5-6.82c-0.5-0.04-0.9-0.93-1.35-1.42
	c0.57-0.51,1.06-1.35,1.71-1.48c4.43-0.91,8.87-1.83,13.36-2.41c2.38-0.32,2.59,1.71,2.59,3.53c0,6.59-0.02,13.19-0.02,19.79
	c0,3.57-0.05,7.14,0.06,10.7c0.18,5.6,3.94,8.4,9.2,6.47c2.86-1.05,5.5-2.92,8-4.75c0.83-0.6,1.33-2.19,1.33-3.34
	c0.11-7.13,0-14.28,0.03-21.41c0-3.16-1.27-5.11-4.56-5.66c-0.7-0.12-1.3-0.97-1.95-1.5c0.69-0.56,1.3-1.46,2.07-1.61
	c4.22-0.85,8.5-1.48,12.73-2.28c2.69-0.52,2.91,1.3,2.95,3.04c0.12,4.32,0.03,8.65,0.03,12.98c0.02,6.16-0.03,12.32,0.07,18.48
	C378.83,756.3,379.66,756.88,385.28,755.36"/>
<path class="st1" d="M546.11,755.53c0.33,0.83,0.66,1.71,1.19,3.1c-4.37,2.13-8.56,4.32-12.87,6.21c-2.33,1.03-4.26,0.08-5.21-2.35
	c-0.56-1.48-0.92-3.04-1.54-5.11c-1.25,0.96-2.21,1.71-3.19,2.45c-4.03,3.04-8.33,5.28-13.59,5.31
	c-8.33,0.07-13.38-7.63-10.32-15.96c2.21-6.08,7.44-9.08,13.38-10.75c3.82-1.07,7.77-1.74,11.66-2.63c0.72-0.15,1.98-0.46,1.98-0.71
	c0.06-3.29,0.43-6.72-0.39-9.8c-0.41-1.54-2.94-3.13-4.77-3.54c-4.03-0.91-6.84,1.28-8.15,5.13c-0.38,1.02-1.36,2.2-2.32,2.57
	c-2.5,0.96-5.13,1.62-7.77,2.17c-0.88,0.18-2.41-0.09-2.74-0.66c-0.4-0.71-0.14-2.12,0.32-2.96c2.67-4.73,6.97-7.63,11.86-9.59
	c5.25-2.08,10.67-3.64,16.41-2.32c6.66,1.54,9.36,5.24,9.3,12.02c-0.06,7.34-0.02,14.7,0.2,22.05
	C539.72,756.54,539.87,756.54,546.11,755.53 M528.28,746.13c0-7.51,0.07-6.76-6.4-5.1c-1.36,0.33-2.74,0.63-3.99,1.18
	c-3.16,1.39-5.19,3.84-5.98,7.18c-0.99,4.18,1.95,7.99,5.84,7.69C523.71,756.64,528.2,751.94,528.28,746.13"/>
<path class="st1" d="M492.38,750.84c0.55,0.82,1.08,1.6,1.71,2.52c-7.43,7.5-15.71,12.61-26.69,11.76
	c-9.86-0.77-19.76-9.55-22.57-20.61c-3.16-12.65-1.25-24.47,7.1-34.77c5.28-6.5,12.21-10.06,20.71-10.44
	c6.2-0.27,12.27,0.26,18.03,2.87c2.27,1.03,3.22,2.34,1.73,4.74c-0.85,1.37-1.43,2.9-2.27,4.3c-1.97,3.37-3.66,3.48-5.95,0.36
	c-2.33-3.15-5.11-5.43-9.08-6.25c-6.02-1.26-11,0.67-13.97,5.7c-2.36,3.97-4.17,8.63-4.79,13.19c-1.14,8.23-1.39,16.6,3.28,24.21
	c4.9,8,13.67,11.2,22.37,7.74C485.46,754.77,488.69,752.75,492.38,750.84"/>
<path class="st1" d="M632.88,751.65c0.61,0.78,1.21,1.51,1.95,2.44c-5.95,5.85-11.82,11.23-20.86,11.05
	c-9.76-0.18-16.78-4.63-19.96-13.96c-5-14.73,1.03-29.98,16.42-34.53c11.69-3.47,21.27,2.08,24.15,13.85
	c1.37,5.62-1.32,9.16-7.3,9.27c-6.59,0.13-13.19,0.11-19.79,0c-2.71-0.04-3.86,0.76-3.06,3.59c0.38,1.33,0.38,2.79,0.8,4.11
	c3.02,9.23,9.2,11.37,18.09,8.91C626.57,755.5,629.48,753.38,632.88,751.65 M604.49,735.1c4.69,0,9.11-0.16,13.49,0.04
	c7.28,0.33,6.22-2.02,5.05-6.88c-0.38-1.67-1.57-3.33-2.77-4.63c-3.22-3.47-8.6-3.53-11.85-0.19
	C605.36,726.56,604.59,730.49,604.49,735.1"/>
<path class="st1" d="M566.7,724.45c0.81-0.9,1.59-1.86,2.47-2.7c4.85-4.63,10.16-7.68,17.2-5.12c2.07,0.74,3.1,1.83,2.63,4.05
	c-0.82,3.88-1.6,7.77-2.59,11.61c-0.17,0.68-1.26,1.59-1.93,1.6c-0.65,0-1.49-0.9-1.92-1.6c-0.46-0.81-0.55-1.85-0.8-2.79
	c-1.59-5.69-6.15-6.88-10.52-2.61c-3.42,3.37-5.86,7.36-5.53,12.61c0.26,4.53,0.04,9.08,0.05,13.63c0,5.23,0.17,5.46,5.27,6.83
	c0.63,0.17,1.36,0.13,1.86,0.46c0.72,0.43,1.23,1.14,1.83,1.72c-0.65,0.55-1.25,1.58-1.9,1.59c-7.66,0.11-15.34,0.11-23.01,0.01
	c-0.66-0.01-1.28-0.96-1.94-1.48c0.54-0.66,0.95-1.62,1.64-1.9c4.85-2.07,4.86-2.02,4.85-7.19c-0.02-8.21,0.01-16.43-0.02-24.64
	c-0.01-4.44-0.65-5.17-4.83-6.28c-0.63-0.16-1.09-0.96-1.64-1.46c0.7-0.63,1.3-1.63,2.09-1.83c3.63-0.92,7.35-1.54,11-2.42
	c2.95-0.72,4.13-0.02,4.54,3.05c0.2,1.38,0.24,2.79,0.38,4.16C565.91,723.89,566.19,724.01,566.7,724.45"/>
<path class="st2" d="M149.45,563c0,0-45.41-76.86-34.46-178.08c10.94-101.21,70.58-212.55,209.26-262.6
	c138.7-50.07,266.72,16.41,314.3,67.28c47.61,50.89,65.84,80.98,81.15,125.48c15.32,44.5,19.53,95.02,17.32,115.26
	c-2.17,20.24-1.27,51.06-24.24,108.69l-9.2,19.42c0,0-3.37,9.85,3.82,13.68c7.21,3.82,13.14-0.37,16.14-7.11
	c2.99-6.75,23.17-49.33,27.9-82.89c4.74-33.56,15.33-98.85-12.76-175.08c-28.08-76.23-68.11-113.07-68.11-113.07
	s-58.81-74.41-167.69-99.57C394,69.25,318.23,101.79,287.32,115.74c-30.9,13.96-76.42,36.66-126.01,100.48
	c-49.6,63.83-74.21,151.73-67.1,224.5c7.11,72.76,25.16,105.95,25.16,105.95l11.12,24.07c0,0,4.56,9.67,13.67,6.76
	C153.28,574.59,150.72,565.26,149.45,563"/>
<polygon class="st3" points="386.83,308.86 472.17,308.86 472.17,381.62 542.21,381.62 542.21,466.79 472.45,466.79 472.45,541.01 
	386.83,541.01 386.83,466.24 310.78,466.24 310.78,381.81 386.66,381.81 "/>
<polygon class="st4" points="407.53,298.28 376.88,298.28 376.88,331.6 365.84,320.55 365.84,249.59 "/>
<polygon class="st4" points="334.03,337.8 263.88,325.64 302.31,371.18 362.07,371.18 "/>
<polygon class="st4" points="300.38,419.46 300.38,460.77 245.86,451.1 "/>
<polygon class="st4" points="376.71,477.05 376.71,511.65 370.96,526.43 309.14,562.25 334.05,495.51 365.35,477.05 "/>
<polygon class="st4" points="451.65,298.28 482.3,298.28 482.3,333.21 494.54,319.2 494.34,247.5 "/>
<polygon class="st4" points="553.14,416.59 553.14,462.23 613.26,451.47 "/>
<polygon class="st4" points="482.47,477.05 482.47,505.36 491.6,529.25 552.2,564.31 528.49,497.48 493.82,477.05 "/>
<polygon class="st4" points="412,551.45 448.38,551.45 430.19,601.79 "/>
<polygon class="st4" points="497.2,371.05 527.44,336.17 596.23,324.54 552.88,375.84 552.88,370.91 "/>
<path class="st1" d="M412.27,298.18h36.53V261l33.09-38.05c0,0,3.28-8.61-4.78-15.16c-8.05-6.55-15.97-2.32-17.88,0
	c-1.92,2.32-10.11,12.01-10.11,12.01v-40.27c0,0-4.51-9.97-18.16-9.83c-13.65,0.13-18.69,7.91-18.69,10.23v41.78l-14.34-16.79
	c0,0-10.02-3.28-15.93,2.55c-5.93,5.83-6.19,11.83-4.65,14.38c1.54,2.55,34.95,40.86,34.95,40.86L412.27,298.18z"/>
<path class="st1" d="M377.07,331.3v39.52h-14.78l-49.02-58.39l-51.19-7.69c0,0-10.66-3.81-7.5-16.79
	c3.12-12.97,14.73-9.97,14.73-9.97l17.21,3.14l-27.02-32.9c0,0-3.7-9.7,7.1-18.43c10.77-8.74,21.03-4.64,21.03-4.64l25.93,30.98
	l0.14-17.74c0,0,3.41-9.56,13.78-9.56c10.37,0,12.84,8.06,12.84,8.06l-0.48,51.15L377.07,331.3z"/>
<path class="st1" d="M300.38,378.15v37.39l-28.63-5.29l-45.03,27.36c0,0-8.58,3.1-14.78-7.29c-6.2-10.41,2.83-17.42,2.83-17.42
	l16.88-9.67l-39.85-6.75c0,0-10.27-3.02-8.89-18.88c1.36-15.86,12.16-18.33,16.81-17.37c4.66,0.96,36.11,6.44,36.11,6.44
	l-11.63-14.23c0,0-2.32-10.53,5.62-15.86c7.92-5.34,13.93-2.75,15.31-1.24c1.36,1.51,31.19,38.71,31.19,38.71L300.38,378.15z"/>
<path class="st1" d="M300.38,472.94v4.09h64.97l-62.36,36.81l-16.82,49.41c0,0-3.56,7.89-16.27,4.34
	c-12.74-3.56-8.76-17.37-8.76-17.37l6.41-16l-35.41,20.52c0,0-13.26,2.73-19.84-11.49c-6.57-14.23,3.02-21.06,3.02-21.06
	l32.14-18.89l-17.38-2.78c0,0-7.92-3.92-7.21-13.68c0.73-9.75,9.3-13.4,9.3-13.4l50.97,9.57L300.38,472.94z"/>
<path class="st1" d="M376.71,511.65v39.8h24.07l-7.47,20.92l18.16,47.78c0,0,3.34,9.75-7.32,14.5c-10.65,4.73-17.42-3.02-17.42-3.02
	l-7.56-19.96l-13.96,37.36c0,0-5.29,11.6-23.61,4.22c-8.66-4.11-12.86-11.22-9.67-19.78c3.2-8.57,12.15-33.13,12.15-33.13
	l-15.11,8.75c0,0-10.16,3.22-15.63-6.99c-5.48-10.22,1.36-16.41,1.36-16.41l43.29-23.43L376.71,511.65z"/>
<path class="st1" d="M482.3,333.21l0.32,37.98h14.82l50.59-59.59l49.8-6.61c0,0,10.68-3.83,7.54-16.82
	c-3.16-13-14.78-9.99-14.78-9.99l-15.81,1.78l25.66-31.59c0,0,3.68-9.71-7.11-18.47c-10.81-8.75-21.07-4.64-21.07-4.64l-27.01,33.19
	l-0.32-21.53c0,0-3.29-9.57-13.69-9.57c-10.39,0-13.3,9.12-13.3,9.12l0.73,53.9L482.3,333.21z"/>
<path class="st1" d="M553.05,379.19l0.09,36.71l34.62-5.65l45.05,27.36c0,0,8.56,3.1,14.77-7.29c6.2-10.41-2.83-17.43-2.83-17.43
	l-15.57-9.84l38.55-6.56c0,0,10.27-3.02,8.89-18.88c-1.36-15.87-12.18-18.34-16.82-17.38c-4.66,0.96-38.81,6.88-38.81,6.88
	l13.95-16.93c0,0,1.92-10.82-6.01-16.17c-7.93-5.33-14.4-1.5-15.78,0c-1.37,1.51-32.82,40.4-32.82,40.4L553.05,379.19z"/>
<path class="st1" d="M553.14,469.44v7.61h-58.99l63.92,37.6l15.29,48.61c0,0,3.54,7.89,16.28,4.33c12.71-3.56,8.75-17.37,8.75-17.37
	l-4.58-14.41l33.57,18.91c0,0,13.26,2.74,19.82-11.48c6.58-14.23-3-21.07-3-21.07l-33.62-19.27l19.69-3.64c0,0,8.45-4.66,7.73-14.42
	c-0.72-9.76-10.91-12.95-10.91-12.95l-52.98,10.58L553.14,469.44z"/>
<path class="st1" d="M482.47,505.36l0.36,46.09h-22.5l8.01,21.74l-17.41,46.15c0,0-2.3,10.48,8.85,13.95
	c11.12,3.47,17.23-5.19,17.23-5.19l5.56-15.1l13.13,36.12c0,0,4.8,10.94,23.12,3.55c8.67-4.1,13.36-10.62,10.18-19.2
	c-3.19-8.57-12.83-34.97-12.83-34.97l18.02,10.18c0,0,10.21,3.1,15.69-7.11c5.46-10.21-2.37-16.6-2.37-16.6l-44.82-26.26
	L482.47,505.36z"/>
</svg>
